<svg xmlns="http://www.w3.org/2000/svg" id="Layer_1" width="189.8" height="219.2" viewBox="0 0 189.8 219.2"><path d="M94.9 0l94.9 54.8v109.6l-94.9 54.8L0 164.4V54.8L94.9 0z"/><path fill="#fff" d="M41.3 154l-4.1-5.9a1.9 1.9 0 0 1 .2-2.2l14.9-17.6h-7.4a1.7 1.7 0 0 1-1.8-1.8v-13a1.7 1.7 0 0 1 1.8-1.8h10.4a50.3 50.3 0 0 1-2-13.7 42.6 42.6 0 0 1 85.1 0 44.2 44.2 0 0 1-2 13.7h10.4a1.7 1.7 0 0 1 1.8 1.8v13a1.7 1.7 0 0 1-1.8 1.8h-9.2l14.9 17.7a1.9 1.9 0 0 1 0 2.2l-4.1 5.9a1.9 1.9 0 0 1-2.3.5l-8.6-4.5H52.3l-8.6 4.5a2 2 0 0 1-2.4-.6zm27.4-25.7H56.8L40.9 147l2.5 3.6 30.4-16zm-22-13v9.4h98.5v-9.4zm12.4-3.6h73.6a43.5 43.5 0 0 0 2.2-13.7A39 39 0 0 0 57 98c-.1 4.8.3 9.6 2.1 13.8zm17.3 25.7l-17.1 9h24.4zm-3.1-9.2l15.1 18.2h13l15.1-18.2zm40.1 9.2l-7.4 9h24.5zm19.6-9.2h-11.8l-5.4 6.3 30.6 16 2.5-3.4z"/></svg>