<svg xmlns="http://www.w3.org/2000/svg" id="Layer_1" width="189.8" height="219.2" viewBox="0 0 189.8 219.2"><path d="M94.9 0l94.9 54.8v109.6l-94.9 54.8L0 164.4V54.8L94.9 0z"/><path fill="#fff" d="M39.8 150.1a1.8 1.8 0 0 1 0-3.6h9v-11.3h-9a1.7 1.7 0 0 1-1.8-1.8V97.9a1.7 1.7 0 0 1 1.8-1.8h11.9c.9-25.6 20-39.6 43.2-39.6s42.3 14 43.2 39.6H150a1.7 1.7 0 0 1 1.8 1.8v35.5a1.7 1.7 0 0 1-1.8 1.8h-9v11.3h9a1.8 1.8 0 1 1 0 3.6zm1.8-50.4v31.9h106.6V99.7zm10.8 35.5v11.3H64v-11.3zm2.9-39.1h79.2c-.9-23.2-18.5-36-39.6-36s-38.7 12.8-39.6 36zm12.2 39.1v11.3h18v-11.3zm21.6 0v11.3h11.5v-11.3zm48.8-12.2H94a1.8 1.8 0 1 1 0-3.6h43.9a1.8 1.8 0 0 1 0 3.6zm-33.7 12.2v11.3h18v-11.3zm21.6 0v11.3h11.5v-11.3z"/></svg>