<svg xmlns="http://www.w3.org/2000/svg"><symbol id="bubbles" viewBox="0 0 189.8 219.2"><path d="M73.9 134.6l-30.5 16-2.5-3.6 15.9-18.7h11.8l5.3 6.3zm2.5 2.9l7.4 9H59.3l17.1-9zm40.1-9.2l-15.1 18.2h-13l-15.1-18.2h43.2zm-3 9.2l17.1 9h-24.5l7.4-9zm-54.4-25.7c-1.8-4.1-2.2-9-2.2-13.7a39 39 0 0 1 77.9 0 43.5 43.5 0 0 1-2.2 13.7zm-12.4 3.6h98.5v9.36H46.7zm86.4 12.9l15.8 18.9-2.5 3.4-30.6-16 5.4-6.3h11.9z"/><path d="M94.9 0L0 54.8v109.6l94.9 54.8 94.9-54.8V54.8zm57.6 148.1l-4.1 5.9a1.9 1.9 0 0 1-2.3.5l-8.6-4.5H52.3l-8.6 4.5a2 2 0 0 1-2.3-.5l-4.1-5.9a1.9 1.9 0 0 1 .2-2.2l14.9-17.6h-7.5a1.7 1.7 0 0 1-1.8-1.8v-13a1.7 1.7 0 0 1 1.8-1.8h10.4a50.3 50.3 0 0 1-2-13.7 42.6 42.6 0 0 1 85.1 0 44.2 44.2 0 0 1-2 13.7h10.4a1.7 1.7 0 0 1 1.8 1.8v13a1.7 1.7 0 0 1-1.8 1.8h-9.2l14.8 17.6a1.9 1.9 0 0 1 .1 2.2z"/></symbol><symbol id="domes" viewBox="0 0 189.8 219.2"><path d="M52.4 135.2h11.5v11.34H52.4zm15.2 0h18v11.34h-18zm21.6 0h11.5v11.34H89.2zm15.1 0h18v11.34h-18zm30.2-39.1H55.3c.9-23.2 18.5-36 39.6-36s38.7 12.8 39.6 36zm-8.6 39.1h11.5v11.34h-11.5zM41.6 99.7v31.9h106.6V99.7zm96.3 23.2H94a1.8 1.8 0 0 1 0-3.6h43.9a1.8 1.8 0 0 1 0 3.6z"/><path d="M94.9 0L0 54.8v109.6l94.9 54.8 94.9-54.8V54.8zm56.9 133.4a1.7 1.7 0 0 1-1.8 1.8h-9v11.3h9a1.8 1.8 0 1 1 0 3.6H39.8a1.8 1.8 0 1 1 0-3.6h9v-11.3h-9a1.7 1.7 0 0 1-1.8-1.8V97.9a1.7 1.7 0 0 1 1.8-1.8h11.9c.9-25.6 20-39.6 43.2-39.6s42.3 14 43.2 39.6H150a1.7 1.7 0 0 1 1.8 1.8z"/></symbol><symbol id="stilts" viewBox="0 0 189.8 219.2"><path d="M62.7 109.4H43.4c5.6-21.8 24.8-38.5 47.9-40zm4.5 0l25.9-36.3v36.3H67.2zm-22.5 17.1h48.4v19.98H44.7zm52 0h8.1v19.98h-8.1zm11.7 0h36.7v19.98h-36.7zm38-17.1H96.7V69.3a53.5 53.5 0 0 1 49.7 40.1zm-112 3.6h120.9v9.9H34.4z"/><path d="M94.9 0L0 54.8v109.6l94.9 54.8 94.9-54.8V54.8zm77.6 126.5h-23.8v21.8a1.7 1.7 0 0 1-1.8 1.8h-104a1.7 1.7 0 0 1-1.8-1.8v-21.8H17.3a1.8 1.8 0 0 1 0-3.6h13.5v-11.7a1.7 1.7 0 0 1 1.8-1.8h7a57.1 57.1 0 0 1 55.1-43.7c.2-.2.4-.2.7 0a56.9 56.9 0 0 1 54.7 43.7h7a1.7 1.7 0 0 1 1.8 1.8v11.7h13.5a1.8 1.8 0 1 1 0 3.6z"/></symbol></svg>