<svg xmlns="http://www.w3.org/2000/svg" id="Layer_1" width="189.8" height="219.2" viewBox="0 0 189.8 219.2"><path d="M94.9 0l94.9 54.8v109.6l-94.9 54.8L0 164.4V54.8L94.9 0z"/><path fill="#fff" d="M42.9 150.1a1.7 1.7 0 0 1-1.8-1.8v-21.8H17.3a1.8 1.8 0 0 1 0-3.6h13.5v-11.7a1.7 1.7 0 0 1 1.8-1.8h7a57.1 57.1 0 0 1 55.1-43.7c.2-.2.4-.2.7 0a56.9 56.9 0 0 1 54.7 43.7h7a1.7 1.7 0 0 1 1.8 1.8v11.7h13.5a1.8 1.8 0 1 1 0 3.6h-23.7v21.8a1.7 1.7 0 0 1-1.8 1.8zM34.4 113v9.9h121V113zm56.9-43.5c-23 1.4-42.3 18.2-47.9 40h19.3zm-46.6 57v20h48.4v-20zm48.4-53.4l-25.9 36.3h25.9zm3.6-3.8v40.1h49.7a53.5 53.5 0 0 0-49.7-40.1zm0 57.2v20h8.1v-20zm11.7 0v20h36.7v-20z"/></svg>