<svg xmlns="http://www.w3.org/2000/svg" id="Layer_1" width="189.8" height="219.2" viewBox="0 0 189.8 219.2"><path d="M62.7 109.4H43.4c5.6-21.8 24.8-38.5 47.9-40zm4.5 0l25.9-36.3v36.3H67.2zm-22.5 17.1h48.4v19.98H44.7zm52 0h8.1v19.98h-8.1zm11.7 0h36.7v19.98h-36.7zm38-17.1H96.7V69.3a53.5 53.5 0 0 1 49.7 40.1zm-112 3.6h120.9v9.9H34.4z"/><path d="M94.9 0L0 54.8v109.6l94.9 54.8 94.9-54.8V54.8zm77.6 126.5h-23.8v21.8a1.7 1.7 0 0 1-1.8 1.8h-104a1.7 1.7 0 0 1-1.8-1.8v-21.8H17.3a1.8 1.8 0 0 1 0-3.6h13.5v-11.7a1.7 1.7 0 0 1 1.8-1.8h7a57.1 57.1 0 0 1 55.1-43.7c.2-.2.4-.2.7 0a56.9 56.9 0 0 1 54.7 43.7h7a1.7 1.7 0 0 1 1.8 1.8v11.7h13.5a1.8 1.8 0 1 1 0 3.6z"/></svg>